<svg xmlns="http://www.w3.org/2000/svg" viewBox="0 0 100 100" fill="none">
  <path d="M50 15 L60 50 L50 45 L40 50 Z" fill="#DBEAFE" stroke="#2563EB" stroke-width="2.5" stroke-linejoin="round"/>
  <ellipse cx="50" cy="52" rx="10" ry="5" fill="#2563EB"/>
  <circle cx="50" cy="35" r="6" fill="white" stroke="#7C3AED" stroke-width="2"/>
  <path d="M35 55 Q30 60 28 70 L32 68 L30 75 L37 70 Q40 60 40 55 Z" fill="#10B981" opacity="0.7"/>
  <path d="M65 55 Q70 60 72 70 L68 68 L70 75 L63 70 Q60 60 60 55 Z" fill="#10B981" opacity="0.7"/>
  <path d="M45 60 L40 85 L45 83 L50 90 L55 83 L60 85 L55 60" fill="#DBEAFE" stroke="#2563EB" stroke-width="2" stroke-linejoin="round"/>
  <line x1="48" y1="25" x2="52" y2="25" stroke="#10B981" stroke-width="2" stroke-linecap="round"/>
  <line x1="50" y1="23" x2="50" y2="27" stroke="#10B981" stroke-width="2" stroke-linecap="round"/>
</svg>

